<?xml version="1.0" encoding="UTF-8" standalone="yes"?>
<!--
  Claude CLI icon — Variant K: "Haiku Terminal, Ai-loaded"

  The official Haiku Terminal icon (tombstone CRT monitor,
  yellow top strip, tilted keyboard with individual keys,
  coiled cable) lifted verbatim from darealshinji/haiku-icons
  — MIT-licensed export of Haiku's own icon set. We add
  only an amber phosphor wash over the screen and the
  "Ai · leaf" mark on top — the hAIku pun running on
  hardware that looks native to Tracker.

  The vanilla screen is white/grey gradient; we overlay a
  deep amber at semi-transparency so the CRT reads as
  "powered on, AI running." The cream "Ai" glyphs and
  green Haiku leaf sit on top.

  Attribution: base artwork © Haiku contributors; SVG
  export by darealshinji (github.com/darealshinji/haiku-icons).
  Screen content added for this project.
-->
<svg version="1.1" width="64" height="64" color-interpolation="linearRGB"
     xmlns:svg="http://www.w3.org/2000/svg" xmlns="http://www.w3.org/2000/svg">
 <g>
  <path style="fill:#000000; fill-opacity:0.3921"
        d="M30 34L22 37L56 52C56 52 64 50 64 47C64 44 30 34 30 34z
           M33 64H37L52 54L46 51L33 64z"
  />
  <path style="fill:none; stroke:#000000; stroke-opacity:0.3921; stroke-width:2"
        d="M53 50C53 50 53 55 56 56C59.79 57.26 61.95 59.43 58 60C51 61 52 58 45 57"
  />
  <path style="fill:none; stroke:#000000; stroke-width:2"
        d="M52 47C52 47 49 54 54 55C57.92 55.78 59.95 58.43 56 59C49 60 50 54 43 53"
  />
  <path style="fill:none; stroke:#000000; stroke-width:4"
        d="M22 34L54 48V17L38 13V7L22 3V34z"
  />
  <linearGradient id="gradient0" gradientUnits="userSpaceOnUse" x1="56.06" y1="-8.88" x2="85.21" y2="21.09">
   <stop offset="0" stop-color="#ededed"/>
   <stop offset="1" stop-color="#a5a5a5"/>
  </linearGradient>
  <path style="fill:url(#gradient0)"
        d="M22 8V34L54 48V17L22 8z"
  />
  <path style="fill:#ffffff"
        d="M50 42L26 32L24 33L52 45V19L50 21V42z"
  />
  <linearGradient id="gradient1" gradientUnits="userSpaceOnUse" x1="88.01" y1="6.3" x2="89.51" y2="27.08">
   <stop offset="0" stop-color="#919191"/>
   <stop offset="1" stop-color="#b5b5b5"/>
  </linearGradient>
  <path style="fill:url(#gradient1)"
        d="M24 11V33L26 32V14L50 21L52 19L24 11z"
  />
  <linearGradient id="gradient2" gradientUnits="userSpaceOnUse" x1="119.17" y1="-37.89" x2="141.58" y2="13.42">
   <stop offset="0" stop-color="#ffffff"/>
   <stop offset="1" stop-color="#e9e9e9"/>
  </linearGradient>
  <path style="fill:url(#gradient2)"
        d="M26 14V32L52 43V22L26 14z"
  />
  <linearGradient id="gradient3" gradientUnits="userSpaceOnUse" x1="51.7" y1="-2.04" x2="54.15" y2="16.45">
   <stop offset="0" stop-color="#ffea00"/>
   <stop offset="1" stop-color="#ffb830"/>
  </linearGradient>
  <path style="fill:url(#gradient3)"
        d="M22 3V9L38 13.75V7L22 3z"
  />
  <path style="fill:none; stroke:#000000; stroke-width:4; stroke-linejoin:round"
        d="M2 45V47L32 62H34L44 55V51L10 36L2 45z"
  />
  <linearGradient id="gradient4" gradientUnits="userSpaceOnUse" x1="23.93" y1="10.34" x2="55.16" y2="40.05">
   <stop offset="0" stop-color="#c4c4c4"/>
   <stop offset="1" stop-color="#a0a0a0"/>
  </linearGradient>
  <path style="fill:url(#gradient4)"
        d="M10 36L2 44V45L32 60H34L44 51L10 36z"
  />
  <linearGradient id="gradient5" gradientUnits="userSpaceOnUse" x1="-11.17" y1="15.94" x2="44.75" y2="20.45">
   <stop offset="0" stop-color="#b4b4b4"/>
   <stop offset="1" stop-color="#8d8d8d"/>
   <stop offset="0.9053" stop-color="#656565"/>
  </linearGradient>
  <path style="fill:url(#gradient5)"
        d="M44 55L34 62H32L2 47V45L32 60H34L44 51V55z"
  />
  <radialGradient id="gradient6" gradientUnits="userSpaceOnUse" cx="0" cy="0" r="64" gradientTransform="matrix(0.1249,0,0,0.121,9.25,34.75)">
   <stop offset="0" stop-color="#cbcbcb"/>
   <stop offset="1" stop-color="#ffffff"/>
  </radialGradient>
  <path style="fill:url(#gradient6)"
        d="M8 38L10 36L13 37.5L11 39.5L8 38z"
        transform="matrix(1,0,0,1,0,0.25)"
  />
  <radialGradient id="gradient7" gradientUnits="userSpaceOnUse" cx="0" cy="0" r="64" gradientTransform="matrix(0.1249,0,0,0.121,9.25,34.75)">
   <stop offset="0" stop-color="#cbcbcb"/>
   <stop offset="1" stop-color="#ffffff"/>
  </radialGradient>
  <path style="fill:url(#gradient7)"
        d="M8 38L10 36L13 37.5L11 39.5L8 38z"
        transform="matrix(1,0,0,1,4,2)"
  />
  <radialGradient id="gradient8" gradientUnits="userSpaceOnUse" cx="0" cy="0" r="64" gradientTransform="matrix(0.1249,0,0,0.121,9.25,34.75)">
   <stop offset="0" stop-color="#cbcbcb"/>
   <stop offset="1" stop-color="#ffffff"/>
  </radialGradient>
  <path style="fill:url(#gradient8)"
        d="M8 38L10 36L13 37.5L11 39.5L8 38z"
        transform="matrix(1,0,0,1,8,4)"
  />
  <radialGradient id="gradient9" gradientUnits="userSpaceOnUse" cx="0" cy="0" r="64" gradientTransform="matrix(0.1249,0,0,0.121,9.25,34.75)">
   <stop offset="0" stop-color="#cbcbcb"/>
   <stop offset="1" stop-color="#ffffff"/>
  </radialGradient>
  <path style="fill:url(#gradient9)"
        d="M8 38L10 36L13 37.5L11 39.5L8 38z"
        transform="matrix(1,0,0,1,12,6)"
  />
  <radialGradient id="gradient10" gradientUnits="userSpaceOnUse" cx="0" cy="0" r="64" gradientTransform="matrix(0.1249,0,0,0.121,9.25,34.75)">
   <stop offset="0" stop-color="#cbcbcb"/>
   <stop offset="1" stop-color="#ffffff"/>
  </radialGradient>
  <path style="fill:url(#gradient10)"
        d="M8 38L10 36L13 37.5L11 39.5L8 38z"
        transform="matrix(1,0,0,1,16.125,8)"
  />
  <radialGradient id="gradient11" gradientUnits="userSpaceOnUse" cx="0" cy="0" r="64" gradientTransform="matrix(0.1249,0,0,0.121,9.25,34.75)">
   <stop offset="0" stop-color="#cbcbcb"/>
   <stop offset="1" stop-color="#ffffff"/>
  </radialGradient>
  <path style="fill:url(#gradient11)"
        d="M8 38L10 36L13 37.5L11 39.5L8 38z"
        transform="matrix(1,0,0,1,20.125,9.875)"
  />
  <radialGradient id="gradient12" gradientUnits="userSpaceOnUse" cx="0" cy="0" r="64" gradientTransform="matrix(0.1249,0,0,0.121,9.25,34.75)">
   <stop offset="0" stop-color="#cbcbcb"/>
   <stop offset="1" stop-color="#ffffff"/>
  </radialGradient>
  <path style="fill:url(#gradient12)"
        d="M8 38L10 36L13 37.5L11 39.5L8 38z"
        transform="matrix(1,0,0,1,24.375,11.875)"
  />
  <radialGradient id="gradient13" gradientUnits="userSpaceOnUse" cx="0" cy="0" r="64" gradientTransform="matrix(0.1249,0,0,0.121,9.25,34.75)">
   <stop offset="0" stop-color="#cbcbcb"/>
   <stop offset="1" stop-color="#ffffff"/>
  </radialGradient>
  <path style="fill:url(#gradient13)"
        d="M8 38L10 36L13 37.5L11 39.5L8 38z"
        transform="matrix(1,0,0,1,29,13.875)"
  />
  <radialGradient id="gradient14" gradientUnits="userSpaceOnUse" cx="0" cy="0" r="64" gradientTransform="matrix(0.1249,0,0,0.121,9.25,34.75)">
   <stop offset="0" stop-color="#cbcbcb"/>
   <stop offset="1" stop-color="#ffffff"/>
  </radialGradient>
  <path style="fill:url(#gradient14)"
        d="M8 38L10 36L13 37.5L11 39.5L8 38z"
        transform="matrix(1,0,0,1,-3,3.25)"
  />
  <radialGradient id="gradient15" gradientUnits="userSpaceOnUse" cx="0" cy="0" r="64" gradientTransform="matrix(0.1249,0,0,0.121,9.25,34.75)">
   <stop offset="0" stop-color="#cbcbcb"/>
   <stop offset="1" stop-color="#ffffff"/>
  </radialGradient>
  <path style="fill:url(#gradient15)"
        d="M8 38L10 36L13 37.5L11 39.5L8 38z"
        transform="matrix(1,0,0,1,1,5.25)"
  />
  <radialGradient id="gradient16" gradientUnits="userSpaceOnUse" cx="0" cy="0" r="64" gradientTransform="matrix(0.1249,0,0,0.121,9.25,34.75)">
   <stop offset="0" stop-color="#cbcbcb"/>
   <stop offset="1" stop-color="#ffffff"/>
  </radialGradient>
  <path style="fill:url(#gradient16)"
        d="M8 38L10 36L13 37.5L11 39.5L8 38z"
        transform="matrix(1,0,0,1,5,7.25)"
  />
  <radialGradient id="gradient17" gradientUnits="userSpaceOnUse" cx="0" cy="0" r="64" gradientTransform="matrix(0.1249,0,0,0.121,9.25,34.75)">
   <stop offset="0" stop-color="#cbcbcb"/>
   <stop offset="1" stop-color="#ffffff"/>
  </radialGradient>
  <path style="fill:url(#gradient17)"
        d="M8 38L10 36L13 37.5L11 39.5L8 38z"
        transform="matrix(1,0,0,1,9,9.25)"
  />
  <radialGradient id="gradient18" gradientUnits="userSpaceOnUse" cx="0" cy="0" r="64" gradientTransform="matrix(0.1249,0,0,0.121,9.25,34.75)">
   <stop offset="0" stop-color="#cbcbcb"/>
   <stop offset="1" stop-color="#ffffff"/>
  </radialGradient>
  <path style="fill:url(#gradient18)"
        d="M8 38L10 36L13 37.5L11 39.5L8 38z"
        transform="matrix(1,0,0,1,13.125,11.25)"
  />
  <radialGradient id="gradient19" gradientUnits="userSpaceOnUse" cx="0" cy="0" r="64" gradientTransform="matrix(0.1249,0,0,0.121,9.25,34.75)">
   <stop offset="0" stop-color="#cbcbcb"/>
   <stop offset="1" stop-color="#ffffff"/>
  </radialGradient>
  <path style="fill:url(#gradient19)"
        d="M8 38L10 36L13 37.5L11 39.5L8 38z"
        transform="matrix(1,0,0,1,17.25,13.125)"
  />
  <radialGradient id="gradient20" gradientUnits="userSpaceOnUse" cx="0" cy="0" r="64" gradientTransform="matrix(0.1333,0.0921,-0.0688,0.0996,33.6231,50.6128)">
   <stop offset="0" stop-color="#cbcbcb"/>
   <stop offset="1" stop-color="#ffffff"/>
  </radialGradient>
  <path style="fill:url(#gradient20)"
        d="M29 53L31 51L38 54.5L36 56.5L29 53z"
        transform="matrix(1,0,0,1,0.5,-0.125)"
  />
  <radialGradient id="gradient21" gradientUnits="userSpaceOnUse" cx="0" cy="0" r="64" gradientTransform="matrix(0.1508,0.0594,-0.0444,0.1126,5.033,40.7422)">
   <stop offset="0" stop-color="#cbcbcb"/>
   <stop offset="1" stop-color="#ffffff"/>
  </radialGradient>
  <path style="fill:url(#gradient21)"
        d="M2 44L4 42L9 44.5L7 46.5L2 44z"
        transform="matrix(1,0,0,1,0.125,0.125)"
  />
  <radialGradient id="gradient22" gradientUnits="userSpaceOnUse" cx="0" cy="0" r="64" gradientTransform="matrix(0.2535,0.1873,-0.0719,0.0974,11.5211,43.5024)">
   <stop offset="0" stop-color="#cbcbcb"/>
   <stop offset="1" stop-color="#ffffff"/>
  </radialGradient>
  <path style="fill:url(#gradient22)"
        d="M8 47L10 45L21 50.5L19 52.5L8 47z"
  />
  <radialGradient id="gradient23" gradientUnits="userSpaceOnUse" cx="0" cy="0" r="64" gradientTransform="matrix(0.1508,0.0594,-0.0444,0.1126,5.033,40.7422)">
   <stop offset="0" stop-color="#cbcbcb"/>
   <stop offset="1" stop-color="#ffffff"/>
  </radialGradient>
  <path style="fill:url(#gradient23)"
        d="M2 44L4 42L9 44.5L7 46.5L2 44z"
        transform="matrix(1,0,0,1,18,9)"
  />
  <radialGradient id="gradient24" gradientUnits="userSpaceOnUse" cx="0" cy="0" r="64" gradientTransform="matrix(0.1249,0,0,0.121,9.25,34.75)">
   <stop offset="0" stop-color="#cbcbcb"/>
   <stop offset="1" stop-color="#ffffff"/>
  </radialGradient>
  <path style="fill:url(#gradient24)"
        d="M8 38L10 36L13 37.5L11 39.5L8 38z"
        transform="matrix(1,0,0,1,18,18.25)"
  />
  <radialGradient id="gradient25" gradientUnits="userSpaceOnUse" cx="0" cy="0" r="64" gradientTransform="matrix(0.1249,0,0,0.121,9.25,34.75)">
   <stop offset="0" stop-color="#cbcbcb"/>
   <stop offset="1" stop-color="#ffffff"/>
  </radialGradient>
  <path style="fill:url(#gradient25)"
        d="M8 38L10 36L13 37.5L11 39.5L8 38z"
        transform="matrix(1,0,0,1,22,20.25)"
  />

  <!-- ── Screen overlay (hAIku project addition) ──
       Amber phosphor wash on top of the vanilla white
       screen so the CRT reads as "powered on, AI running." -->
  <polygon points="26,14 52,22 52,43 26,32"
           fill="#6B3A10" opacity="0.6"/>
  <polygon points="30,17 48,23 48,39 30,30"
           fill="#8A4A18" opacity="0.42"/>

  <!-- "Ai" glyphs in cream, centered on the screen. The
       text element is for SVG preview only — redraw as
       HVIF vector paths in Icon-O-Matic when converting. -->
  <text x="32" y="30.5"
        font-family="Helvetica, Arial, sans-serif"
        font-weight="900" font-size="9"
        fill="#F8D890"
        letter-spacing="-0.5">Ai</text>

  <!-- Haiku leaf sprig tucked to the right of the 'i' so
       it reads as a dot-replacement / brand accent. Two
       teardrop leaves on a short curved stem; Haiku green. -->
  <path d="M 44 28 Q 44.5 25.5 45.5 23.5"
        fill="none" stroke="#3F6B28" stroke-linecap="round"
        stroke-width="0.55"/>
  <path d="M 45.5 23.5 Q 47 22 47.8 23 Q 46.8 24.3 45.5 23.5 Z"
        fill="#7FBF5F" stroke="#3F6B28" stroke-width="0.35"/>
  <path d="M 44.3 26 Q 43 25.3 42.5 26.3 Q 43.5 27.3 44.3 26 Z"
        fill="#6AA84F" stroke="#3F6B28" stroke-width="0.35"/>
 </g>
</svg>
